<mxfile host="app.diagrams.net" modified="2022-03-23T15:21:54.200Z" agent="5.0 (Windows)" etag="LHqOKcNKDjnqmhUCiIzp" version="17.1.5" type="github">
  <diagram id="pURHegUp6cq-tkpQsEsW" name="Page-1">
    <mxGraphModel dx="1038" dy="536" grid="1" gridSize="10" guides="1" tooltips="1" connect="1" arrows="1" fold="1" page="1" pageScale="1" pageWidth="850" pageHeight="1100" math="0" shadow="0">
      <root>
        <mxCell id="0" />
        <mxCell id="1" parent="0" />
        <mxCell id="cVTJlADYsgq80q1PcCsK-8" style="edgeStyle=orthogonalEdgeStyle;rounded=0;orthogonalLoop=1;jettySize=auto;html=1;exitX=1;exitY=0.5;exitDx=0;exitDy=0;entryX=0;entryY=0.5;entryDx=0;entryDy=0;" edge="1" parent="1" source="cVTJlADYsgq80q1PcCsK-1" target="cVTJlADYsgq80q1PcCsK-2">
          <mxGeometry relative="1" as="geometry" />
        </mxCell>
        <mxCell id="cVTJlADYsgq80q1PcCsK-1" value="" style="rounded=0;whiteSpace=wrap;html=1;" vertex="1" parent="1">
          <mxGeometry x="80" y="270" width="160" height="50" as="geometry" />
        </mxCell>
        <mxCell id="cVTJlADYsgq80q1PcCsK-9" style="edgeStyle=orthogonalEdgeStyle;rounded=0;orthogonalLoop=1;jettySize=auto;html=1;exitX=1;exitY=0.5;exitDx=0;exitDy=0;entryX=0;entryY=0.5;entryDx=0;entryDy=0;" edge="1" parent="1" source="cVTJlADYsgq80q1PcCsK-2" target="cVTJlADYsgq80q1PcCsK-3">
          <mxGeometry relative="1" as="geometry" />
        </mxCell>
        <mxCell id="cVTJlADYsgq80q1PcCsK-10" style="edgeStyle=orthogonalEdgeStyle;rounded=0;orthogonalLoop=1;jettySize=auto;html=1;exitX=1;exitY=1;exitDx=0;exitDy=0;entryX=0;entryY=0.5;entryDx=0;entryDy=0;" edge="1" parent="1" source="cVTJlADYsgq80q1PcCsK-2" target="cVTJlADYsgq80q1PcCsK-4">
          <mxGeometry relative="1" as="geometry">
            <Array as="points">
              <mxPoint x="422" y="434" />
            </Array>
          </mxGeometry>
        </mxCell>
        <mxCell id="cVTJlADYsgq80q1PcCsK-11" style="edgeStyle=orthogonalEdgeStyle;rounded=0;orthogonalLoop=1;jettySize=auto;html=1;exitX=0.5;exitY=1;exitDx=0;exitDy=0;entryX=0;entryY=0.5;entryDx=0;entryDy=0;" edge="1" parent="1" source="cVTJlADYsgq80q1PcCsK-2" target="cVTJlADYsgq80q1PcCsK-5">
          <mxGeometry relative="1" as="geometry" />
        </mxCell>
        <mxCell id="cVTJlADYsgq80q1PcCsK-13" style="edgeStyle=orthogonalEdgeStyle;rounded=0;orthogonalLoop=1;jettySize=auto;html=1;exitX=0;exitY=1;exitDx=0;exitDy=0;entryX=0;entryY=0.5;entryDx=0;entryDy=0;" edge="1" parent="1" source="cVTJlADYsgq80q1PcCsK-2" target="cVTJlADYsgq80q1PcCsK-6">
          <mxGeometry relative="1" as="geometry">
            <mxPoint x="440" y="734" as="targetPoint" />
            <Array as="points">
              <mxPoint x="338" y="694" />
            </Array>
          </mxGeometry>
        </mxCell>
        <mxCell id="cVTJlADYsgq80q1PcCsK-2" value="" style="ellipse;whiteSpace=wrap;html=1;aspect=fixed;" vertex="1" parent="1">
          <mxGeometry x="320" y="235" width="120" height="120" as="geometry" />
        </mxCell>
        <mxCell id="cVTJlADYsgq80q1PcCsK-3" value="" style="ellipse;whiteSpace=wrap;html=1;aspect=fixed;" vertex="1" parent="1">
          <mxGeometry x="557" y="238.75" width="112.5" height="112.5" as="geometry" />
        </mxCell>
        <mxCell id="cVTJlADYsgq80q1PcCsK-29" style="edgeStyle=orthogonalEdgeStyle;rounded=0;orthogonalLoop=1;jettySize=auto;html=1;exitX=1;exitY=0.5;exitDx=0;exitDy=0;entryX=0;entryY=0.25;entryDx=0;entryDy=0;fontSize=13;" edge="1" parent="1" source="cVTJlADYsgq80q1PcCsK-4" target="cVTJlADYsgq80q1PcCsK-27">
          <mxGeometry relative="1" as="geometry" />
        </mxCell>
        <mxCell id="cVTJlADYsgq80q1PcCsK-4" value="" style="ellipse;whiteSpace=wrap;html=1;aspect=fixed;" vertex="1" parent="1">
          <mxGeometry x="559.25" y="380" width="108" height="108" as="geometry" />
        </mxCell>
        <mxCell id="cVTJlADYsgq80q1PcCsK-30" style="edgeStyle=orthogonalEdgeStyle;rounded=0;orthogonalLoop=1;jettySize=auto;html=1;exitX=1;exitY=0.5;exitDx=0;exitDy=0;entryX=0;entryY=0.5;entryDx=0;entryDy=0;fontSize=13;" edge="1" parent="1" source="cVTJlADYsgq80q1PcCsK-5" target="cVTJlADYsgq80q1PcCsK-27">
          <mxGeometry relative="1" as="geometry">
            <Array as="points">
              <mxPoint x="710" y="564" />
              <mxPoint x="710" y="434" />
            </Array>
          </mxGeometry>
        </mxCell>
        <mxCell id="cVTJlADYsgq80q1PcCsK-5" value="" style="ellipse;whiteSpace=wrap;html=1;aspect=fixed;" vertex="1" parent="1">
          <mxGeometry x="559.25" y="510" width="108" height="108" as="geometry" />
        </mxCell>
        <mxCell id="cVTJlADYsgq80q1PcCsK-31" style="edgeStyle=orthogonalEdgeStyle;rounded=0;orthogonalLoop=1;jettySize=auto;html=1;exitX=1;exitY=0.5;exitDx=0;exitDy=0;entryX=0;entryY=0.75;entryDx=0;entryDy=0;fontSize=13;" edge="1" parent="1" source="cVTJlADYsgq80q1PcCsK-6" target="cVTJlADYsgq80q1PcCsK-27">
          <mxGeometry relative="1" as="geometry">
            <Array as="points">
              <mxPoint x="720" y="694" />
              <mxPoint x="720" y="449" />
            </Array>
          </mxGeometry>
        </mxCell>
        <mxCell id="cVTJlADYsgq80q1PcCsK-6" value="" style="ellipse;whiteSpace=wrap;html=1;aspect=fixed;" vertex="1" parent="1">
          <mxGeometry x="559.25" y="640" width="108" height="108" as="geometry" />
        </mxCell>
        <mxCell id="cVTJlADYsgq80q1PcCsK-21" value="Super admin" style="text;html=1;resizable=0;autosize=1;align=center;verticalAlign=middle;points=[];fillColor=none;strokeColor=none;rounded=0;fontSize=13;" vertex="1" parent="1">
          <mxGeometry x="115" y="285" width="90" height="20" as="geometry" />
        </mxCell>
        <mxCell id="cVTJlADYsgq80q1PcCsK-22" value="&lt;div&gt;Manage&lt;/div&gt;&lt;div&gt;subjects&lt;br&gt;&lt;/div&gt;" style="text;html=1;resizable=0;autosize=1;align=center;verticalAlign=middle;points=[];fillColor=none;strokeColor=none;rounded=0;fontSize=13;" vertex="1" parent="1">
          <mxGeometry x="350" y="275" width="60" height="40" as="geometry" />
        </mxCell>
        <mxCell id="cVTJlADYsgq80q1PcCsK-23" value="&lt;div&gt;View&lt;/div&gt;&lt;div&gt;subject&lt;/div&gt;" style="text;html=1;resizable=0;autosize=1;align=center;verticalAlign=middle;points=[];fillColor=none;strokeColor=none;rounded=0;fontSize=13;" vertex="1" parent="1">
          <mxGeometry x="583.25" y="275" width="60" height="40" as="geometry" />
        </mxCell>
        <mxCell id="cVTJlADYsgq80q1PcCsK-24" value="&lt;div&gt;Add&lt;br&gt;&lt;/div&gt;&lt;div&gt;subject&lt;/div&gt;" style="text;html=1;resizable=0;autosize=1;align=center;verticalAlign=middle;points=[];fillColor=none;strokeColor=none;rounded=0;fontSize=13;" vertex="1" parent="1">
          <mxGeometry x="583.25" y="414" width="60" height="40" as="geometry" />
        </mxCell>
        <mxCell id="cVTJlADYsgq80q1PcCsK-25" value="&lt;div&gt;Edit&lt;br&gt;&lt;/div&gt;&lt;div&gt;subject&lt;/div&gt;" style="text;html=1;resizable=0;autosize=1;align=center;verticalAlign=middle;points=[];fillColor=none;strokeColor=none;rounded=0;fontSize=13;" vertex="1" parent="1">
          <mxGeometry x="583.25" y="544" width="60" height="40" as="geometry" />
        </mxCell>
        <mxCell id="cVTJlADYsgq80q1PcCsK-26" value="&lt;div&gt;Delete&lt;br&gt;&lt;/div&gt;&lt;div&gt;subject&lt;/div&gt;" style="text;html=1;resizable=0;autosize=1;align=center;verticalAlign=middle;points=[];fillColor=none;strokeColor=none;rounded=0;fontSize=13;" vertex="1" parent="1">
          <mxGeometry x="583.25" y="674" width="60" height="40" as="geometry" />
        </mxCell>
        <mxCell id="cVTJlADYsgq80q1PcCsK-27" value="" style="shape=partialRectangle;whiteSpace=wrap;html=1;left=0;right=0;fillColor=none;fontSize=13;" vertex="1" parent="1">
          <mxGeometry x="740" y="404" width="150" height="60" as="geometry" />
        </mxCell>
        <mxCell id="cVTJlADYsgq80q1PcCsK-28" value="" style="endArrow=classic;html=1;rounded=0;fontSize=13;exitX=-0.027;exitY=0.117;exitDx=0;exitDy=0;exitPerimeter=0;entryX=1;entryY=0.5;entryDx=0;entryDy=0;" edge="1" parent="1" source="cVTJlADYsgq80q1PcCsK-27" target="cVTJlADYsgq80q1PcCsK-3">
          <mxGeometry width="50" height="50" relative="1" as="geometry">
            <mxPoint x="400" y="560" as="sourcePoint" />
            <mxPoint x="450" y="510" as="targetPoint" />
            <Array as="points">
              <mxPoint x="700" y="410" />
              <mxPoint x="700" y="295" />
            </Array>
          </mxGeometry>
        </mxCell>
        <mxCell id="cVTJlADYsgq80q1PcCsK-33" value="Subject" style="text;html=1;resizable=0;autosize=1;align=center;verticalAlign=middle;points=[];fillColor=none;strokeColor=none;rounded=0;fontSize=13;" vertex="1" parent="1">
          <mxGeometry x="785" y="424" width="60" height="20" as="geometry" />
        </mxCell>
      </root>
    </mxGraphModel>
  </diagram>
</mxfile>
